<?xml version="1.0" standalone="no"?>
<!DOCTYPE svg PUBLIC "-//W3C//DTD SVG 1.1//EN" "http://www.w3.org/Graphics/SVG/1.1/DTD/svg11.dtd" >
<!--
2013-9-30: Created.
-->
<svg>
<metadata>
Created by iconfont
</metadata>
<defs>

<font id="iconfont" horiz-adv-x="1024" >
  <font-face
    font-family="iconfont"
    font-weight="500"
    font-stretch="normal"
    units-per-em="1024"
    ascent="896"
    descent="-128"
  />
    <missing-glyph />
    
    <glyph glyph-name="x" unicode="x" horiz-adv-x="1001"
d="M281 543q-27 -1 -53 -1h-83q-18 0 -36.5 -6t-32.5 -18.5t-23 -32t-9 -45.5v-76h912v41q0 16 -0.5 30t-0.5 18q0 13 -5 29t-17 29.5t-31.5 22.5t-49.5 9h-133v-97h-438v97zM955 310v-52q0 -23 0.5 -52t0.5 -58t-10.5 -47.5t-26 -30t-33 -16t-31.5 -4.5q-14 -1 -29.5 -0.5
t-29.5 0.5h-32l-45 128h-439l-44 -128h-29h-34q-20 0 -45 1q-25 0 -41 9.5t-25.5 23t-13.5 29.5t-4 30v167h911zM163 247q-12 0 -21 -8.5t-9 -21.5t9 -21.5t21 -8.5q13 0 22 8.5t9 21.5t-9 21.5t-22 8.5zM316 123q-8 -26 -14 -48q-5 -19 -10.5 -37t-7.5 -25t-3 -15t1 -14.5
t9.5 -10.5t21.5 -4h37h67h81h80h64h36q23 0 34 12t2 38q-5 13 -9.5 30.5t-9.5 34.5q-5 19 -11 39h-368zM336 498v228q0 11 2.5 23t10 21.5t20.5 15.5t34 6h188q31 0 51.5 -14.5t20.5 -52.5v-227h-327z" />
    

    
    <glyph glyph-name="star" unicode="&#58924;" d="M666.688 549.824C628.096 625.792 589.44 701.76 550.912 777.728 542.016 795.136 526.848 801.344 512 799.744 497.088 801.28 481.984 795.136 473.152 777.728l-115.84-227.968C270.4 537.536 183.36 525.248 96.384 512.96 61.888 508.096 54.464 460.864 76.48 439.936c61.888-58.496 123.648-117.12 185.472-175.552-14.272-80.96-28.544-161.856-42.816-242.752-6.656-37.504 28.992-66.624 66.112-47.68C360.832 12.544 436.352 51.52 512 91.136c75.584-39.616 151.168-78.592 226.688-117.184 37.184-18.944 72.832 11.008 66.24 48.512-14.464 80.896-28.544 161.408-42.944 242.112 61.888 58.56 123.712 116.992 185.472 175.488 22.08 20.928 14.528 68.096-19.84 72.96C840.768 525.312 753.6 537.536 666.688 549.824z"  horiz-adv-x="1024" />

    
    <glyph glyph-name="youxianwangluo" unicode="&#58883;" d="M821.8 180.9h-624c-12.3 0-22.2 10-22.2 22.3v483c0 12.3 10 22.3 22.2 22.3h624c12.3 0 22.3-10 22.3-22.3v-483c0-12.3-10-22.3-22.3-22.3z m-606.2 40h588.5V668.4H215.6v-447.5z m606.2 447.5zM762.6 44.3h-495c-11 0-20 9-20 20s9 20 20 20h495c11 0 20-9 20-20s-9-20-20-20zM824.1 323.4H195.6c-11 0-20 9-20 20s9 20 20 20h628.5c11 0 20-9 20-20s-9-20-20-20z"  horiz-adv-x="1024" />

    
    <glyph glyph-name="zuchefuwu" unicode="&#58884;" d="M254.9 57.9h-7.5c-24.6 0-44.7 19.3-46.2 43.5h-25.8c-11.4 0-20.8 9.3-20.8 20.8v282h54v23.6h-49.3c-13.3 0-24.2 10.8-24.2 24.2v56.1c0 13.3 10.8 24.2 24.2 24.2H244L308 653h110.6v58.7c0 12.3 10 22.3 22.3 22.3h71.2c11 0 20-9 20-20s-9-20-20-20h-53.5v-81H332.1l-64-120.7h-93v-24.4h73.5v-103.6h-54v-222.8h25.7c11.4 0 20.8-9.3 20.8-20.8v-16.5c0-3.4 2.8-6.2 6.2-6.2h7.5c3.4 0 6.2 2.8 6.2 6.2v23.3c0 11.4 9.3 20.8 20.8 20.8h17.5v63.6h212.8c11 0 20-9 20-20s-9-20-20-20H339.3v-42.8c0-11.4-9.3-20.8-20.8-20.8H301v-4c0.1-25.6-20.6-46.4-46.1-46.4zM777.4 57.9h-7.5c-25.5 0-46.2 20.7-46.2 46.2v4h-17.5c-11.4 0-20.8 9.3-20.8 20.8v42.8H512.7c-11 0-20 9-20 20s9 20 20 20h212.8v-63.6H743c11.4 0 20.8-9.3 20.8-20.8V104c0-3.4 2.8-6.2 6.2-6.2h7.5c3.4 0 6.2 2.8 6.2 6.2v16.5c0 11.4 9.3 20.8 20.8 20.8h25.7V364.2h-54V467.8h73.5v24.4h-93l-64 120.7H566.2v81h-53.5c-11 0-20 9-20 20s9 20 20 20h71.2c12.3 0 22.3-10 22.3-22.3v-58.7h110.6l64-120.7h84.8c13.3 0 24.2-10.8 24.2-24.2v-56.1c0-13.3-10.8-24.2-24.2-24.2h-49.3v-23.6h54v-282c0-11.4-9.3-20.8-20.8-20.8h-25.8c-1.5-24.1-21.7-43.4-46.3-43.4z m-193.5 636zM698.6 419.8H327.1v80.8l52.5 82.3 274.5 0.2 44.5-76.4v-86.9z m-331.5 40h291.5V496l-27.5 47.2-229.6-0.2-34.4-54v-29.2zM321 266.9c-32.9 0-59.6 26.7-59.6 59.6s26.7 59.6 59.6 59.6c32.9 0 59.6-26.7 59.6-59.6s-26.7-59.6-59.6-59.6z m0 89.3c-16.3 0-29.6-13.3-29.6-29.6S304.7 297 321 297s29.6 13.3 29.6 29.6-13.3 29.6-29.6 29.6zM703.7 266.9c-32.9 0-59.6 26.7-59.6 59.6s26.7 59.6 59.6 59.6 59.6-26.7 59.6-59.6-26.7-59.6-59.6-59.6z m0 89.3c-16.3 0-29.6-13.3-29.6-29.6s13.3-29.6 29.6-29.6 29.6 13.3 29.6 29.6-13.2 29.6-29.6 29.6z"  horiz-adv-x="1024" />

    
    <glyph glyph-name="spa" unicode="&#58885;" d="M513-52.2c-0.5 0-1.1 0-1.6 0.1-158.6 12.8-257.6 66-294.1 158.1-22.2 56-20.6 125.8 4.8 207.5 19.7 63.4 53.8 134.4 101.3 211.1 80.3 129.7 170.2 229.6 173.9 233.8 7.4 8.2 20.1 8.8 28.2 1.4 8.2-7.4 8.8-20 1.4-28.2-0.9-1-91.5-101.8-169.9-228.5-101.3-163.8-136.8-296-102.5-382.4 30.4-76.7 118-121.5 260.1-133 11-0.9 19.2-10.5 18.3-21.6-0.8-10.4-9.6-18.3-19.9-18.3zM514.1-52.2c-10.3 0-19.1 7.9-19.9 18.4-0.9 11 7.3 20.7 18.3 21.5 144.5 11.6 233.3 56.7 263.7 134C819.3 231 743 390 671.4 504.1c-79.2 126.3-170.3 226.5-171.2 227.5-7.5 8.2-6.9 20.8 1.3 28.3 8.2 7.5 20.8 6.9 28.3-1.3 3.8-4.2 94.4-103.8 175.6-233.2 48-76.5 82.5-147.4 102.5-210.7 25.8-81.6 27.7-151.4 5.6-207.5C777 14.4 676.8-39.1 515.8-52c-0.6-0.2-1.2-0.2-1.7-0.2zM513 45.8h-1.1c-83 4.6-137.9 36.4-169.3 62.4-34.6 28.6-49.4 56.7-50.1 57.8l35.5 18.4v0.1c0.1-0.2 12.5-23.2 41.6-46.8 38.8-31.4 87.4-48.9 144.5-52 11-0.6 19.5-10 18.9-21.1-0.7-10.6-9.5-18.8-20-18.8z"  horiz-adv-x="1024" />

    
    <glyph glyph-name="wifi" unicode="&#58886;" d="M870.4 427.8c-5.4 0-10.7 2.1-14.7 6.4-110.3 118.6-228.1 177.5-350.2 175-103.8-2.1-192.4-49.1-248.4-88.1-61.6-42.8-98.6-85.8-99-86.3-7.2-8.4-19.8-9.4-28.2-2.2-8.4 7.2-9.4 19.8-2.2 28.2 1.6 1.9 40.1 46.7 105.5 92.4 38.5 26.9 78.4 48.5 118.7 64.3 50.7 19.9 102 30.5 152.5 31.6C638.5 652 766.5 588.8 885 461.4c7.5-8.1 7.1-20.7-1-28.3-3.8-3.5-8.7-5.3-13.6-5.3zM760.9 342c-5.3 0-10.6 2.1-14.5 6.2-78 82.3-159.7 122.6-243 119.6-68.4-2.5-126-34.2-162.3-60.4-40.1-29-64-57.8-64.2-58.1-7-8.5-19.6-9.8-28.1-2.8-8.5 7-9.8 19.6-2.9 28.1 1.1 1.3 26.7 32.5 70.7 64.5 58.7 42.6 122.7 66.4 185 68.7 95.4 3.6 187.5-40.9 273.8-132 7.6-8 7.3-20.7-0.8-28.3-3.8-3.6-8.7-5.5-13.7-5.5zM364.9 253.5c-4.5 0-9 1.5-12.8 4.6-8.5 7-9.7 19.7-2.6 28.2 2.7 3.2 66.6 79.1 158.6 81.2 57.1 1.3 111.3-25.8 161.1-80.5 7.4-8.2 6.8-20.8-1.3-28.3-8.2-7.4-20.8-6.8-28.3 1.3-41.7 45.8-85.6 68.5-130.6 67.4-74-1.7-128.2-66.1-128.7-66.7-3.9-4.7-9.6-7.2-15.4-7.2zM511.9 156.6m-68.2 0a68.2 68.2 0 1 1 136.4 0 68.2 68.2 0 1 1-136.4 0Z"  horiz-adv-x="1024" />

    
    <glyph glyph-name="canting" unicode="&#58887;" d="M856.2 171.8H169.5c-11.9 0-23.1 5.3-30.7 14.5-7.6 9.2-10.6 21.3-8.3 33 7.2 36.4 26.5 133 83.4 218.7 31.3 47.1 69.6 84.3 114 110.5 53.2 31.4 115.5 47.3 185.3 47.3 69.6 0 131.8-15.9 184.9-47.4 44.3-26.2 82.5-63.4 113.8-110.5 51.2-77.2 72.1-161.8 83.3-218.7 2.3-11.7-0.7-23.7-8.3-32.9-7.6-9.2-18.7-14.5-30.7-14.5z m-686.4 40h686c-44.5 225-163 344-342.7 344-182.2 0-297.7-115.8-343.3-344zM860.1 90.4H165.6c-11 0-20 9-20 20s9 20 20 20h694.5c11 0 20-9 20-20s-9-20-20-20zM631.6 568.4h-40v36.8c0 43.6-35.4 79-79 79s-79-35.4-79-79v-29.5h-40v29.5c0 65.6 53.4 119 119 119s119-53.4 119-119v-36.8zM768.1 264.9c-9 0-17.2 6.1-19.4 15.3C712.9 427.6 609.6 445 608.6 445.1c-10.9 1.7-18.4 11.9-16.8 22.8 1.7 10.9 11.8 18.4 22.8 16.8 1.4-0.2 34.5-5.5 72.2-32.7 21.8-15.7 40.9-35.7 56.8-59.3 19.6-29 34.4-63.7 43.9-103 2.6-10.7-4-21.5-14.7-24.2-1.5-0.4-3.1-0.6-4.7-0.6z"  horiz-adv-x="1024" />

    
    <glyph glyph-name="chashi" unicode="&#58888;" d="M651.5 105.9H420.4a58 58 0 0 0-23.9 5.1c-7.3 3.3-45.9 21.2-84.9 55.6-42.9 37.8-69.1 80.1-77.8 125.5-13.8 71.7 16.8 146.5 90.9 222.6 7.7 7.9 18.5 12.5 29.6 12.5h363.2c9.9 0 19.5-3.6 27-10 14-12.1 44.4-43.4 69.1-84.5 32.2-53.3 44.4-104.2 36.5-151.3C838 209.2 779 151.8 674.8 110.7c-8.2-3.2-15.8-4.8-23.3-4.8zM354.4 487.1c-0.4 0-0.7-0.1-1-0.4-64.4-66.1-91.5-129-80.3-187.1 7-36.5 28.9-71.2 65-103.1 35.3-31.2 70.7-47.3 74.6-49 2.4-1.1 5-1.6 7.7-1.6h231.1c2.3 0 5.1 0.7 8.6 2 90.3 35.6 141 82.7 150.7 140.1 7.9 46.5-12.7 93.1-31.3 123.9-22.2 36.8-49.6 65-60.9 74.8-0.3 0.2-0.6 0.3-0.9 0.3H354.4zM258.9 238c-41.8 0-72.8 1.7-90.4 24-15.4 19.4-15.4 47.5-15.4 94.1 0 19.7-5.2 34.2-15.9 44.2-19.2 18-50.9 16.2-51.2 16.2l-1.4 20-1.5 19.9c2 0.2 48.9 3.3 81.2-26.6 19.1-17.7 28.8-42.5 28.8-73.7 0-33.9 0-60.7 6.7-69.2 6.2-7.8 32.1-8.8 59.1-8.8 11 0 20-9 20-20s-8.9-20.1-20-20.1zM739.8 487.1H370.2l-5.9 9c-19.2 29.2 15.2 68 47.2 98.5 31.5 29.9 70.3 59.7 90.6 74.8 14.9 11.1 35.5 11.7 51.3 1.6 96.4-61.7 160.5-148.5 163.1-152.2l23.3-31.7z m-335.1 40h253.4c-26.4 29.8-71 75-126.2 110.3-1.7 1.1-4.4 1-5.9-0.1-17.3-12.8-50.5-38.2-79.1-64.4-24.2-22.2-36.3-36.8-42.2-45.8z m109.4 126.2zM810.6 204.9c-8.2 0-15.9 5.1-18.8 13.3-3.7 10.4 1.7 21.8 12.1 25.6 10.3 3.7 36.3 19.2 61.8 42.1 21 18.9 47.9 48.4 56.6 81.4 6.9 26.3 0.8 50.1-18.8 72.7-55.8 64.4-126.4 17.3-129.4 15.2-9.1-6.3-21.5-4.1-27.8 5-6.3 9.1-4.1 21.5 5 27.9 1 0.7 25.8 17.8 60.2 23.8 32.8 5.7 80.6 2.4 122.2-45.7 28.1-32.4 37.5-70.1 27.3-109.1-11.2-42.6-43.5-78.4-68.6-101-29.4-26.5-59.6-44.5-75.1-50-2.2-0.8-4.5-1.2-6.7-1.2zM621.1 185.9c-8.6 0-16.5 5.6-19.1 14.2-3.2 10.6 2.8 21.7 13.4 24.9 108.5 32.7 107.3 108.4 107.3 109.2-0.4 11 8.3 20.3 19.3 20.6 11.1 0.4 20.3-8.3 20.6-19.3 0.1-2.9 0.4-29.2-16.4-60.6-15.3-28.5-48.4-66.9-119.3-88.2-2-0.5-3.9-0.8-5.8-0.8z"  horiz-adv-x="1024" />

    
    <glyph glyph-name="hanglijicun" unicode="&#58889;" d="M791.1 40.9h-559c-33.4 0-60.5 27.1-60.5 60.5V507.9c0 33.4 27.1 60.5 60.5 60.5h559c33.4 0 60.5-27.1 60.5-60.5v-406.5c0-33.3-27.2-60.5-60.5-60.5z m-559 487.5c-11.3 0-20.5-9.2-20.5-20.5v-406.5c0-11.3 9.2-20.5 20.5-20.5h559c11.3 0 20.5 9.2 20.5 20.5V507.9c0 11.3-9.2 20.5-20.5 20.5h-559zM700.6 532.2h-376V709.5c0 49.1 42.8 89 95.5 89h185c52.7 0 95.5-39.9 95.5-89v-177.3z m-336 40h296V709.5c0 27-24.9 49-55.5 49h-185c-30.6 0-55.5-22-55.5-49v-137.3zM414.6 163.9c-11 0-20 9-20 20v258c0 11 9 20 20 20s20-9 20-20v-258c0-11-9-20-20-20zM609.6 163.9c-11 0-20 9-20 20v258c0 11 9 20 20 20s20-9 20-20v-258c0-11-9-20-20-20zM342.1 58.9h40v-61.5h-40zM643.6 58.9h40v-61.5h-40z"  horiz-adv-x="1024" />

    
    <glyph glyph-name="huiyishi" unicode="&#58890;" d="M512.1 252.9c-67.3 0-122 54.7-122 122s54.7 122 122 122 122-54.7 122-122-54.7-122-122-122z m0 204c-45.2 0-82-36.8-82-82s36.8-82 82-82 82 36.8 82 82-36.8 82-82 82zM341.1 245.4c-0.8 0-1.7 0.1-2.6 0.2-31.9 4.1-61.3 18.2-82.8 39.7-21.4 21.4-33.2 47.7-33.2 74.2 0 67.3 54.7 122 122 122 16.3 0 32.2-3.2 47.2-9.5 10.2-4.3 15-16 10.7-26.2-4.3-10.2-16-15-26.2-10.7-10 4.2-20.7 6.3-31.7 6.3-45.2 0-82-36.8-82-82 0-30.7 31-67.8 81-74.2 11-1.4 18.7-11.4 17.3-22.4-1.2-10-9.8-17.4-19.7-17.4zM337.1 76l-40 0.9c1.4 63.1 30.7 121.5 85 168.9 40.1 35.1 79.6 51.9 81.3 52.6l15.5-36.9c-0.4-0.2-36.1-15.5-71.3-46.6-45.7-40.2-69.4-87-70.5-138.9zM678.1 76c-2.7 125.7-140.3 184.9-141.7 185.5l15.5 36.9c1.7-0.7 41.2-17.5 81.3-52.6 54.2-47.4 83.6-105.8 85-168.9l-40.1-0.9zM197.6 127.9l-40 0.6c1.7 107.8 122.3 168.1 127.4 170.6l17.6-35.9-8.8 18 8.8-17.9c-1-0.6-103.7-52.3-105-135.4zM684.2 245.4c-9.9 0-18.5 7.4-19.8 17.5-1.4 11 6.3 21 17.3 22.4 50 6.4 81 43.5 81 74.2 0 45.2-36.8 82-82 82-11 0-21.7-2.1-31.7-6.3-10.2-4.3-21.9 0.5-26.2 10.7-4.3 10.2 0.5 21.9 10.7 26.2 15 6.3 30.8 9.5 47.2 9.5 67.3 0 122-54.7 122-122 0-26.5-11.8-52.9-33.2-74.2-21.5-21.5-50.9-35.6-82.8-39.7-0.8-0.2-1.6-0.3-2.5-0.3zM827.7 127.9c-1.3 83.2-104 134.8-105 135.4l17.6 35.9c5.1-2.5 125.7-62.9 127.4-170.6l-40-0.7zM854.1 318.9c-11 0-20 9-20 20V645.6c0 0.1-0.1 0.2-0.2 0.2h-642c-0.1 0-0.2-0.1-0.2-0.2v-306.7c0-11-9-20-20-20s-20 9-20 20V645.6c0 22.2 18.1 40.2 40.2 40.2h642c22.2 0 40.2-18.1 40.2-40.2v-306.7c0-11-9-20-20-20z"  horiz-adv-x="1024" />

    
    <glyph glyph-name="jianshenfang" unicode="&#58891;" d="M670.6 408.9h-315c-11 0-20 9-20 20s9 20 20 20h315c11 0 20-9 20-20s-9-20-20-20zM670.6 332h-315c-11 0-20 9-20 20s9 20 20 20h315c11 0 20-9 20-20s-9-20-20-20zM282.9 167.3c-42.9 0-77.7 34.9-77.7 77.7V533.3c0 42.9 34.9 77.7 77.7 77.7s77.7-34.9 77.7-77.7v-288.2c0-42.9-34.9-77.8-77.7-77.8z m0 403.7c-20.8 0-37.7-16.9-37.7-37.7v-288.2c0-20.8 16.9-37.7 37.7-37.7s37.7 16.9 37.7 37.7V533.3c0 20.8-16.9 37.7-37.7 37.7zM211.6 255.6h-58.5c-17.6 0-32 14.4-32 32V473c0 17.6 14.4 32 32 32h58.5c17.6 0 32-14.4 32-32v-185.4c0-17.6-14.4-32-32-32z m-50.5 40h42.5V465h-42.5v-169.4zM744.9 167.3c-42.9 0-77.7 34.9-77.7 77.7V533.3c0 42.9 34.9 77.7 77.7 77.7s77.7-34.9 77.7-77.7v-288.2c0-42.9-34.8-77.8-77.7-77.8z m0 403.7c-20.8 0-37.7-16.9-37.7-37.7v-288.2c0-20.8 16.9-37.7 37.7-37.7s37.7 16.9 37.7 37.7V533.3c0 20.8-16.9 37.7-37.7 37.7zM874.6 255.6h-58.5c-17.6 0-32 14.4-32 32V473c0 17.6 14.4 32 32 32h58.5c17.6 0 32-14.4 32-32v-185.4c0-17.6-14.3-32-32-32z m-50.5 40h42.5V465h-42.5v-169.4z"  horiz-adv-x="1024" />

    
    <glyph glyph-name="jiejifuwu" unicode="&#58892;" d="M347.3 21.2c-6.1 0-12.1 2.7-16.1 7.7-5.7 7.2-6 17.4-0.7 24.8l110.6 155.1V323.3L167.8 175.4c-7.2-3.9-16.1-3.2-22.6 1.7s-9.5 13.3-7.7 21.3l17.4 75.9L420 520.8V697.7c0 9.5 3.7 18.4 10.3 25.2l62.3 63.4c5.4 5.5 12.8 8.5 20.5 8.5 7.6-0.1 15-3.3 20.3-8.9l59.7-63.3c6.3-6.7 9.8-15.5 9.8-24.7V521l263.2-244.6 16.9-78.5c1.7-7.9-1.4-16.2-7.9-21.1-6.4-4.8-15.2-5.5-22.3-1.7L574 322.8v-115.1l95.1-155.1c4.8-7.8 3.8-17.9-2.4-24.7-6.2-6.7-16.2-8.6-24.3-4.5l-131 65.5-156.1-66.1c-2.6-1.1-5.3-1.6-8-1.6z m-7.6 38.4z m120.5 316.7c3.7 0 7.4-1 10.7-2.9 6.3-3.7 10.2-10.6 10.2-17.9V196L403 86.4l109.8 46.5 86.7-43.3L534 196.4V354.5c0 7.3 3.9 14.1 10.1 17.9 6.2 3.8 14.1 4 20.5 0.6l270.7-143.4-5.6 26.1-256.1 238c-6.8 6.3-10.6 15.2-10.6 24.4V696.3l-50.3 53.3-52.6-53.6v-178c0-9.2-3.9-18.1-10.6-24.4L191.2 253.5l-5.2-22.7 264.3 143c3.1 1.7 6.5 2.5 9.9 2.5z m411.5-165.9c0-0.1 0 0 0 0z"  horiz-adv-x="1024" />

    
    <glyph glyph-name="kafeiting" unicode="&#58893;" d="M781.4 31.6h-540c-11 0-20 9-20 20s9 20 20 20h540c11 0 20-9 20-20s-8.9-20-20-20zM511.4 108.2c-43.2 0-85.3 8.5-125.1 25.2-39.8 16.8-75.3 40.9-105.5 71.8l-16 16.4c-27.9 28.6-43.3 66.3-43.3 106.2V498.5c0 13.5 11 24.5 24.5 24.5h531c13.5 0 24.5-11 24.5-24.5v-170.3c0-39.5-15.1-76.9-42.5-105.3l-15.2-15.8c-30.3-31.4-66-56.1-106.1-73.1-40.2-17.1-82.7-25.8-126.3-25.8zM261.5 483v-155.2c0-29.4 11.3-57.2 31.9-78.3l16-16.4c52.8-54 126.5-85 202-85 76.4 0 150.6 31.6 203.6 86.6l15.2 15.8c20.2 21 31.3 48.5 31.3 77.6V483h-500z m515.4 0zM442 542.9c-8.3 0-16 5.2-18.9 13.4-3.6 10.4 1.9 21.8 12.3 25.5 6.4 2.2 10.3 6.4 12 12.8 3.3 12.5-1.8 35.8-26 63.3-20.6 23.4-21.1 44-17.9 57.1 8.1 33.5 46.8 49.5 51.1 51.2 10.3 4 21.9-1.1 25.9-11.3a20 20 0 0 0-11.3-25.9c-7.7-3.1-24.4-12.9-26.9-23.5-1.4-5.7 1.7-12.8 9.1-21.2 29.8-33.9 42.4-70.3 34.6-99.9-5.1-19.4-18.4-33.7-37.5-40.4-2.1-0.8-4.3-1.1-6.5-1.1zM553.6 542.9c-8.3 0-16 5.2-18.9 13.4-3.6 10.4 1.9 21.8 12.3 25.5 6.4 2.2 10.3 6.4 12 12.8 3.3 12.5-1.8 35.8-26 63.3-20.6 23.4-21.1 44-17.9 57.1 8.1 33.5 46.8 49.5 51.1 51.2 10.3 4 21.9-1.1 25.9-11.3a20 20 0 0 0-11.3-25.9c-7.7-3.1-24.4-12.9-26.9-23.5-1.4-5.7 1.7-12.8 9.1-21.2 29.8-33.9 42.4-70.3 34.6-99.9-5.1-19.4-18.4-33.7-37.5-40.4-2.1-0.8-4.3-1.1-6.5-1.1zM813.6 294c-14.2 0-28 2.5-40 7.6-10.2 4.3-14.9 16.1-10.6 26.2s16.1 14.9 26.2 10.6c16.6-7.1 46-6.3 66.5 7.2 13.6 9 20.5 22 20.5 38.6 0 10-3.9 14.5-7.2 17.4-16.5 14-57.8 12.6-75.3 9.7-10.9-1.8-21.2 5.6-23 16.5-1.8 10.9 5.6 21.2 16.5 23 7.3 1.2 72.7 11 107.7-18.7 14-11.8 21.3-28.4 21.3-47.9 0-30.1-13.6-55.6-38.4-72-18-11.9-41.5-18.2-64.2-18.2z"  horiz-adv-x="1024" />

    
    <glyph glyph-name="shangwuzhongxin" unicode="&#58894;" d="M737.9 562.5c-11 0-20 9-20 20V669H309.5v-86.5c0-11-9-20-20-20s-20 9-20 20V686c0 12.7 10.3 23 23 23H735c12.7 0 23-10.3 23-23v-103.5c-0.1-11-9-20-20.1-20zM845.9 190.5h-128v54H302v-54H180c-11.9 0-21.5 9.6-21.5 21.5V564.5c0 11.9 9.6 21.5 21.5 21.5h666c11.9 0 21.5-9.6 21.5-21.5V212c-0.1-11.8-9.7-21.5-21.6-21.5z m-88 40h69.5V546h-629v-315.5H262v54h496v-54zM687.4 28.6H336.9v153h-35.5c-11 0-20 9-20 20s9 20 20 20h75.5v-153h270.5v153h84.5c11 0 20-9 20-20s-9-20-20-20h-44.5v-153zM482.9 439.5H289.5c-11 0-20 9-20 20s9 20 20 20H483c11 0 20-9 20-20s-9-20-20.1-20z"  horiz-adv-x="1024" />

    
    <glyph glyph-name="tingchechang" unicode="&#58895;" d="M511.3 11.3c-48.7 0-96 9.6-140.6 28.4-43 18.2-81.6 44.2-114.8 77.4s-59.2 71.8-77.4 114.8c-18.8 44.5-28.4 91.8-28.4 140.6s9.6 96 28.4 140.6c18.2 43 44.2 81.6 77.4 114.8s71.8 59.2 114.8 77.4c44.5 18.8 91.8 28.4 140.6 28.4 48.7 0 96-9.6 140.6-28.4 43-18.2 81.6-44.2 114.8-77.4C799.8 594.6 825.9 556 844 513c18.8-44.5 28.4-91.8 28.4-140.6s-9.6-96-28.4-140.6c-18.2-43-44.2-81.6-77.4-114.8s-71.8-59.2-114.8-77.4c-44.5-18.8-91.8-28.3-140.5-28.3z m0 682.2c-177.1 0-321.1-144.1-321.1-321.1s144.1-321.1 321.1-321.1 321.1 144.1 321.1 321.1-144 321.1-321.1 321.1zM421.5 150.1c-11 0-20 9-20 20V540.5c0 12.7 10.3 23 23 23h129.7c67.7 0 122.7-55.1 122.7-122.7S621.9 318 554.2 318H441.5v-148c0-11-9-19.9-20-19.9z m20 207.9h112.7c45.6 0 82.7 37.1 82.7 82.7s-37.1 82.7-82.7 82.7H441.5V358z"  horiz-adv-x="1024" />

    
    <glyph glyph-name="yanhuiting" unicode="&#58896;" d="M511.9 261c-62.6 0-121.5 24.4-165.8 68.7-44.3 44.3-68.7 103.2-68.7 165.8V724.2h469v-228.7c0-62.6-24.4-121.5-68.7-165.8S574.6 261 511.9 261zM317.5 684.2v-188.7C317.5 388.3 404.7 301 512 301s194.5 87.2 194.5 194.5V684.2h-389zM491.9 281h40v-172.5h-40zM749.4 37.6h-471c-8.8 0-16.6 5.8-19.2 14.3s0.8 17.6 8.2 22.4c1.2 0.8 29.2 19 74.5 37.1 41.8 16.8 107 36.8 180.3 36.8 141.1 0 235.4-71.8 239.3-74.8 6.8-5.2 9.4-14.2 6.7-22.3-2.6-8.1-10.2-13.5-18.8-13.5z m-384.2 40h306.7c-34.5 14.5-86.9 30.6-149.5 30.6-62.6 0-118.9-16-157.2-30.6zM511.4 352.8h-1.2c-59.5 3.5-95.6 28.4-115.3 48.8-21.6 22.2-29 43.6-29.8 46l38 12.4-0.1 0.2c0.9-2.5 22.5-62.3 109.5-67.4 11-0.6 19.4-10.1 18.8-21.1-0.6-10.7-9.4-18.9-19.9-18.9z"  horiz-adv-x="1024" />

    
    <glyph glyph-name="youyongchi" unicode="&#58897;" d="M717.6 292c-3.1 0-6.3 0.2-9.6 0.7-14.5 2.1-29.5 8.5-51.8 22-23.1 14.1-45.2 6.2-78.8-8.4-3.6-1.6-7.4-3.2-11.1-4.8-37-15.5-88.6-1.9-125.4 12.2-19 7.3-62.7 9.5-85-3.9-17.9-10.7-41.7-15.6-65.5-13.5-24.8 2.3-46.2 11.9-58.9 26.5-7.3 8.4-33.9 7-50.3 2.8-10.7-2.8-21.6 3.6-24.4 14.3-2.8 10.7 3.5 21.6 14.2 24.4 6.5 1.7 63.8 15.8 90.7-15.2 12-13.8 50.5-18.8 73.6-4.9 20.9 12.5 46.5 15.3 64.4 15.5 20.5 0.2 41.2-3 55.6-8.5 41.7-16 76.5-20.6 95.6-12.6 3.5 1.5 6.9 3 10.6 4.6 32.5 14.1 73 31.7 115.5 5.9 35.7-21.7 44.2-19.1 60-11.1 3.3 1.7 6.6 3.6 10.1 5.5 23 13 51.7 29.3 103.4 5.2 10-4.7 14.4-16.6 9.7-26.6-4.7-10-16.6-14.4-26.6-9.7-33 15.3-47.2 7.3-66.8-3.8-3.7-2.1-7.6-4.3-11.7-6.4-9.6-5-22.2-10.2-37.5-10.2zM717.6 199.4c-3.1 0-6.3 0.2-9.6 0.7-14.5 2.1-29.5 8.5-51.8 22-23.1 14.1-45.2 6.2-78.8-8.4-3.6-1.6-7.4-3.2-11.1-4.8-37-15.5-88.6-1.9-125.4 12.2-19 7.3-62.7 9.5-85-3.9-17.9-10.7-41.7-15.6-65.5-13.5-24.8 2.3-46.2 11.9-58.9 26.5-7.3 8.4-34.4 7-50.3 2.8-10.7-2.8-21.6 3.5-24.5 14.2-2.8 10.7 3.5 21.6 14.2 24.5 6.5 1.7 63.8 15.8 90.7-15.2 12-13.8 50.5-18.8 73.6-4.9 20.9 12.5 46.5 15.3 64.4 15.5 20.4 0.2 41.2-3 55.6-8.5 41.7-16 76.5-20.6 95.6-12.6 3.5 1.5 6.9 3 10.6 4.6 32.5 14.1 73 31.7 115.5 5.9 35.7-21.7 44.2-19.1 60-11.1 3.3 1.7 6.6 3.6 10.1 5.5 23 13 51.7 29.3 103.4 5.2 10-4.7 14.4-16.6 9.7-26.6-4.7-10-16.6-14.4-26.6-9.7-33 15.3-47.2 7.3-66.8-3.8-3.7-2.1-7.6-4.3-11.7-6.4-9.5-4.9-22.1-10.2-37.4-10.2zM717.6 103.4c-3.1 0-6.3 0.2-9.6 0.7-14.5 2.1-29.5 8.5-51.8 22-23.1 14-45.2 6.2-78.8-8.4-3.6-1.6-7.4-3.2-11.1-4.8-37-15.5-88.6-1.9-125.4 12.2-19 7.3-62.7 9.5-85-3.9-17.9-10.7-41.7-15.6-65.5-13.5-24.8 2.3-46.2 11.9-58.9 26.5-7.3 8.4-34.4 7-50.3 2.8-10.7-2.8-21.6 3.5-24.5 14.2-2.8 10.7 3.5 21.6 14.2 24.5 6.5 1.7 63.8 15.8 90.7-15.2 12-13.8 50.5-18.8 73.6-4.9 20.9 12.5 46.5 15.3 64.4 15.5 20.4 0.2 41.2-3 55.6-8.5 41.7-16 76.5-20.6 95.6-12.6 3.5 1.5 6.9 3 10.6 4.6 32.5 14.1 73 31.7 115.5 5.9 35.7-21.7 44.2-19.1 60-11.1 3.3 1.7 6.6 3.6 10.1 5.5 23 13 51.7 29.3 103.4 5.2 10-4.7 14.4-16.6 9.7-26.6-4.7-10-16.6-14.4-26.6-9.7-33 15.3-47.2 7.3-66.8-3.8-3.7-2.1-7.6-4.3-11.7-6.4-9.5-5-22.1-10.2-37.4-10.2zM420.6 328.9c-11 0-20 9-20 20V616.4c0 28.1 9.8 51.1 29 68.1 44.6 39.5 125 30.1 128.4 29.7 11-1.3 18.8-11.3 17.4-22.3-1.3-11-11.3-18.7-22.3-17.4-18.3 2.2-71.4 2.8-97.1-20-10.4-9.3-15.5-21.7-15.5-38.1v-267.5c0.1-11-8.9-20-19.9-20zM640.1 328.9c-11 0-20 9-20 20V646.7l4 5.3c31.1 41.6 62.1 60.4 92.2 55.9 42.4-6.4 61.1-55.6 63.1-61.1l1.2-3.3v-64.1c0-11-9-20-20-20s-20 9-20 20v56.8c-4.3 10-15.8 30-30.3 32.1-13.1 1.9-30.8-10.5-50.2-35.1v-284.3c0-11-8.9-20-20-20zM426.6 556.9h220.5v-40H426.6zM426.6 453.8h220.5v-40H426.6z"  horiz-adv-x="1024" />

    
    <glyph glyph-name="xiaoshireshui" unicode="&#58898;" d="M404.1 64.3h-40V663.1l3.5 5.1c2 2.9 49.4 71.4 116.1 71.4 40.1 0 76.7-24 109-71.4l3.5-5.1v-111.2h-40v98.7c-23.3 32.5-47.7 48.9-72.5 48.9-37.2 0-69.2-36.3-79.6-49.3v-585.9zM674.6 427.8H480.1v40.9c0 53.6 43.6 97.2 97.2 97.2s97.2-43.6 97.2-97.2v-40.9z m-154.5 40h114.5v0.9c0 31.6-25.7 57.2-57.2 57.2s-57.2-25.7-57.2-57.2v-0.9zM490.3 410.9h40v-49.5h-40zM555.1 410.9h40v-49.5h-40zM615.1 410.9h40v-49.5h-40zM307.6 70.9h405.5v-40H307.6z"  horiz-adv-x="1024" />

    
    <glyph glyph-name="chuifengji" unicode="&#58899;" d="M468.1 596h17.5v-40h-17.5zM485.6 363.9H267.4c-11.2 0-20.3 9.1-20.3 20.3V575.7c0 11.2 9.1 20.3 20.3 20.3h200.7v-40H287v-152.1h198.5v-40zM637.6 314.4c-62.8 0-118.2 17.8-174.3 56l22.5 33.1c49.8-33.9 96.6-49.1 151.8-49.1 58.6 0 112.7 14.1 152.1 39.8 36.4 23.7 56.4 54.6 56.4 87.2 0 71.2-90.3 127-205.5 127-64.8 0-109.6-15.2-154.7-52.4l-25.4 30.9c52.3 43.1 106.2 61.5 180.2 61.5 66.2 0 127.5-16.5 172.6-46.4 47-31.2 72.9-74 72.9-120.6 0-46.5-26.5-89.4-74.6-120.7-46-29.9-107.7-46.3-174-46.3zM722.1 50.4H621.6c-11.9 0-21.5 9.6-21.5 21.5V334.4h40v-244h63.5v244h40v-262.5c0-11.8-9.7-21.5-21.5-21.5zM260.6 387.9h-95V573h95v-40h-55v-105.1h55z"  horiz-adv-x="1024" />

    
    <glyph glyph-name="baoxiangui" unicode="&#58900;" d="M724.8 172.4H300.2c-11.7 0-21.2 9.5-21.2 21.2V618.2c0 11.7 9.5 21.2 21.2 21.2h424.6c11.7 0 21.2-9.5 21.2-21.2v-424.6c0-11.7-9.5-21.2-21.2-21.2z m-405.8 40h387v387H319v-387zM808.8 85.9H216.2c-13.1 0-23.7 10.6-23.7 23.7V702.2c0 13.1 10.6 23.7 23.7 23.7h592.6c13.1 0 23.7-10.6 23.7-23.7v-592.6c0-13-10.7-23.7-23.7-23.7z m-576.3 40h560v560h-560v-560zM684 555h84.1v-84.1H684zM684 341.6h84.1v-84.1H684zM596 284.5H429c-6.6 0-12 5.4-12 12V420.8c0 6.6 5.4 12 12 12h167c6.6 0 12-5.4 12-12v-124.3c0-6.6-5.4-12-12-12zM577 411h-40v83h-50v-83h-40v83.5c0 21.8 17.7 39.5 39.5 39.5h51c21.8 0 39.5-17.7 39.5-39.5V411z"  horiz-adv-x="1024" />

    
    <glyph glyph-name="dicheng" unicode="&#58901;" d="M814.3 54.9h-606c-13.9 0-25.2 11.3-25.2 25.3v606c0 13.9 11.3 25.2 25.2 25.2h606c13.9 0 25.3-11.3 25.3-25.2v-606c0-13.9-11.4-25.3-25.3-25.3z m-591.2 40h576.5V671.4H223.1v-576.5zM401.1 130c-5.3 0-10.6 2.1-14.5 6.2L284.8 242.1c-3.8 3.9-5.8 9.3-5.6 14.8 0.2 5.5 2.7 10.7 6.8 14.3 5.5 4.9 56.3 48.7 136.9 70.3 47.5 12.7 95.7 15.1 143.4 7 58.9-10 117-36 172.6-77.2 4.7-3.5 7.6-8.8 8.1-14.6 0.5-5.8-1.6-11.5-5.6-15.7L639 136.1c-7.4-7.7-19.6-8.2-27.7-1.1l-0.1 0.1c-4 3.5-98.4 85.3-196.9-0.1-3.8-3.4-8.5-5-13.2-5z m14.3 33.9z m195 0.2l-0.1-0.1 0.1 0.1z m-222.3 1z m121.7 48.8c18.3 0 34.8-2.9 49-6.9 27.9-7.9 50.1-20.9 63.9-30.4l73.8 75.7c-85.6 57.4-174 74.4-263.1 50.6-48.3-12.9-84.7-35-104.4-48.9l74-76.9c37.8 27.8 74.8 36.8 106.8 36.8z m-197.2 27.4c0-0.1-0.1-0.1 0 0-0.1-0.1 0-0.1 0 0zM538.264 201.573l40.522 75.178 35.212-18.98-40.522-75.178z"  horiz-adv-x="1024" />

    
    <glyph glyph-name="dianshi" unicode="&#58902;" d="M824.6 184.4H604v40h201.6v404h-584v-404H417v-40H202.6c-11.6 0-21 9.4-21 21v442c0 11.6 9.4 21 21 21h622c11.6 0 21-9.4 21-21v-442c0-11.6-9.4-21-21-21zM472.1 191.8h80v-91.4h-80zM319.3 120.4h384.8v-40H319.3zM209 254.5v-70h609.2v70H209z m303.7-52.4c-10.1 0-18.3 8.2-18.3 18.3s8.2 18.3 18.3 18.3c10.1 0 18.3-8.2 18.3-18.3s-8.2-18.3-18.3-18.3z"  horiz-adv-x="1024" />

    
    <glyph glyph-name="maojin" unicode="&#58903;" d="M192 660h649.1v-40H192zM688 195.9H277.6v506c0 30.9 25.1 56 56 56h361.5v-40H333.6c-8.8 0-16-7.2-16-16v-466H688v-40zM779.6 50.4H364.1V209.9h40v-119.5h335.5V696.1c0 14.2-11.6 25.7-25.7 25.7s-25.7-11.6-25.7-25.7v-480.2h-40V696.1c0 36.3 29.5 65.7 65.7 65.7 36.3 0 65.7-29.5 65.7-65.7v-645.7zM353 386h250v-40H353zM353 324h250v-40H353z"  horiz-adv-x="1024" />

    
    <glyph glyph-name="reshuihu" unicode="&#58904;" d="M758.1 156.9H267.6c-17.6 0-32 14.4-32 32V359.2c0 73.8 28.9 143.3 81.4 195.8s122 81.4 195.8 81.4c73.8 0 143.3-28.9 195.8-81.4S790 433 790 359.2V189c0.1-17.7-14.3-32.1-31.9-32.1z m-482.5 40h474.5V359.2c0 130.8-106.4 237.2-237.2 237.2-130.9 0-237.3-106.4-237.3-237.2v-162.3zM708.5 66.4H330.2l-79 95.3 30.8 25.5 67-80.8h338.6l56.1 80.5 32.8-22.9zM607.1 612.9h-40v71.3h-104v-71.3h-40v90.2c0 11.7 9.5 21.2 21.2 21.2H586c11.7 0 21.2-9.5 21.2-21.2v-90.2zM270.6 490.3l-63.5 85.2c-6.8 9.1-7.4 21.3-1.5 31.1 5.9 9.7 16.9 14.9 28.1 13.2l144.4-22.1-6-39.5-115.3 17.6 45.9-61.6-32.1-23.9zM785 378.8l-17.9 35.8c2.9 1.5 12.8 11 23.3 28.8 11.2 19 18.5 39.9 20.7 58.8 3.3 29-5.3 52.7-25.7 70.6-62.4 54.7-142.6-0.8-143.4-1.4l-23.1 32.7c1.1 0.8 26.7 18.7 62.6 27.8 49.4 12.4 94.4 2.4 130.3-29.1 30.9-27.1 44.3-64.3 38.8-107.3-3.1-24.2-12.5-50.4-26.5-73.7-12.6-21-27.2-37.1-39.1-43z"  horiz-adv-x="1024" />

    
    <glyph glyph-name="tuoxie" unicode="&#58905;" d="M496.1 300H178.6V539.2c0 87.5 71.2 158.7 158.7 158.7S496 626.7 496 539.2V300z m-277.5 40h237.5V539.2c0 65.5-53.3 118.7-118.7 118.7s-118.7-53.3-118.7-118.7V340zM212.1 427.9h258v-40h-258zM388.3 30.9h-96c-33.8 0-61.2 27.5-61.2 61.2V313.4h40v-221.2c0-11.7 9.5-21.2 21.2-21.2h96c11.7 0 21.2 9.5 21.2 21.2V313.4h40v-221.2c0.1-33.8-27.4-61.3-61.2-61.3zM844.9 300H527.4V539.2c0 87.5 71.2 158.7 158.7 158.7s158.7-71.2 158.7-158.7V300z m-277.5 40h237.5V539.2c0 65.5-53.3 118.7-118.7 118.7s-118.7-53.3-118.7-118.7V340zM560.9 427.9h258v-40h-258zM737.1 30.9h-96c-33.8 0-61.2 27.5-61.2 61.2V313.4h40v-221.2c0-11.7 9.5-21.2 21.2-21.2h96c11.7 0 21.2 9.5 21.2 21.2V313.4h40v-221.2c0.1-33.8-27.4-61.3-61.2-61.3z"  horiz-adv-x="1024" />

    
    <glyph glyph-name="xishutaozhuang" unicode="&#58906;" d="M357.6 57.9h-43.5c-20.1 0-36.5 16.4-36.5 36.5V665.9c0 20.1 16.4 36.5 36.5 36.5h43.5c20.1 0 36.5-16.4 36.5-36.5v-571.5c0-20.1-16.4-36.5-36.5-36.5z m-40 40h36.5V662.4h-36.5v-564.5zM463.1 432.9h-80v40h40v161h-40v40h80zM374.1 539.4h60v-40h-60zM383.1 607.4h51v-40h-51zM670 595.4l-21.1 67h-56.5L571.5 601l-37.8 12.8 30.1 88.6h114.5l29.9-95zM744.5 57.9h-256l-12 12.9 0.6 8.8L519 630.4h202.8l43.3-559.5-6-6.5c-3.7-4.1-9.1-6.5-14.6-6.5z m-225.8 40H723l-38.1 492.5H556.1l-37.4-492.5zM513 177.4h225.4v-40H513z"  horiz-adv-x="1024" />

    
    <glyph glyph-name="kongtiao" unicode="&#58907;" d="M492.1 712.4h40v-669h-40zM389.502 631.309l26.176 30.248 103.978-89.98-26.176-30.248zM321.228 598.58l39.596 5.655 19.5-136.507-39.597-5.656zM226.404 429.158l120.006 54.009 16.416-36.476-120.006-54.009zM224.241 526.618l20.852 34.136L516.39 395.032l-20.852-34.136zM224.338 228.552l264.028 159.206 20.656-34.256-264.028-159.206zM228.5 319.857l12.24 38.08 125.949-40.484-12.24-38.08zM321.461 159.81l25.493 127.478 39.224-7.844-25.493-127.478zM389.276 124.268l103.319 92.99 26.76-29.731-103.319-92.991zM506.005 571.517l103.977 89.98 26.176-30.248-103.977-89.98zM645.197 467.734l19.499 136.507 39.596-5.656-19.5-136.507zM662.896 446.662l16.416 36.476 120.006-54.008-16.416-36.476zM509.378 394.99l271.296 165.721 20.852-34.136-271.296-165.72zM516.838 353.462l20.656 34.256 264.028-159.206-20.656-34.256zM658.922 317.507l125.95 40.484 12.24-38.08-125.95-40.484zM639.437 279.486l39.224 7.844 25.493-127.478-39.224-7.844zM506.347 187.513l26.76 29.728 103.305-92.991-26.76-29.728z"  horiz-adv-x="1024" />

    
    <glyph glyph-name="yigui" unicode="&#58908;" d="M788.1 44.3H236V690.5c0 18.6 15.1 33.7 33.7 33.7h484.7c18.6 0 33.7-15.1 33.7-33.7v-646.2z m-512.1 40h472.1V684.2H276v-599.9zM493 704.2h40v-629.3h-40zM406.6 436.4h40v-105h-40zM573.6 436.4h40v-105h-40zM256 168.4h512.1v-40H256z"  horiz-adv-x="1024" />

    
    <glyph glyph-name="yusan" unicode="&#58909;" d="M491.4 100.8c-0.8 0-1.7 0.1-2.5 0.2-2.2 0.3-55.2 7.3-115.8 41-35.7 19.8-66.7 44.9-92.3 74.5-31.9 37-55.2 81-69.2 130.9-2.4 8.5 1.1 17.6 8.6 22.3l569.1 356.5c7.7 4.8 17.6 3.9 24.2-2.3 6.6-6.1 8.3-16 4.1-24L509.1 111.5c-3.4-6.7-10.3-10.7-17.7-10.7z m-237 243c23.8-72.7 69.8-128.6 136.8-166.2 37-20.8 71.3-30.4 89.4-34.4L747.9 653 254.4 343.8zM293.9-4.6c-15.4 0-29.5 5.3-41.1 15.6-17.8 15.8-28 36.8-28.8 59-0.7 19 5.7 37.9 17 50.6l502.2 564.3c7.3 8.3 20 9 28.2 1.6 8.3-7.3 9-20 1.6-28.2L270.9 94c-7.9-8.9-13.5-33.6 8.5-53.2 4.4-3.9 9.6-5.4 14.9-5.4 15.7 0 32.2 13 32.5 13.1 8.6 7 21.2 5.7 28.1-2.9 7-8.6 5.7-21.2-2.9-28.1-1.4-1.1-13.8-10.9-30.9-17.1-9.4-3.4-18.5-5-27.2-5z"  horiz-adv-x="1024" />

    
    <glyph glyph-name="yugang" unicode="&#58910;" d="M826.4 347h-634c-38 0-69 31-69 69s31 69 69 69h634c38 0 69-31 69-69s-31-69-69-69z m-634 98c-16 0-29-13-29-29s13-29 29-29h634c16 0 29 13 29 29s-13 29-29 29h-634zM818 102H201c-17.6 0-32 14.4-32 32V349.8c0 17.6 14.4 32 32 32h617c17.6 0 32-14.4 32-32V134c0-17.6-14.4-32-32-32z m-609 40h601V341.8H209V142zM285 137.1h78v-78h-78zM667.1 137.1h78v-78h-78zM829.1 472.4h-40V664.8c-1.2 2.7-4.8 9-14.1 15.5-12.5 8.7-37.3 19.1-84.9 19.1-46.9 0-68.8-6.9-78.9-12.6-8.8-5-10.7-9.9-13.3-16.7-0.8-2.1-1.6-4.3-2.7-6.6l-7.5-25.2-38.4 11.4 8.6 29.1 1.1 1.9c0.3 0.5 0.9 2.3 1.4 3.5 3.3 8.8 9.5 25.2 30.9 37.4 21.1 12 53.4 17.9 98.7 17.9 49.9 0 87.9-10.1 112.9-30.1 20.8-16.6 25.1-34.2 25.7-37.6l0.4-1.9v-197.5zM652.6 552.4h-171v15c0 41.5 26.5 78 65.9 90.9l27.6 9 17.7-7.2c36.3-14.7 59.8-49.5 59.8-88.7v-19z m-139.3 30h108.4c-3.7 22.3-18.6 41.3-40.1 50l-7.5 3-17.2-5.6c-22.2-7.2-38.5-25.4-43.6-47.4z"  horiz-adv-x="1024" />

    
    <glyph glyph-name="yijia" unicode="&#58911;" d="M832.2 236H192c-6.7 0-12.9 3.3-16.7 8.9-3.7 5.6-4.4 12.6-1.8 18.8 1 2.4 25.7 60.6 79.2 119.2 31.6 34.6 66.9 62.3 104.7 82.2 47.6 25 99.4 37.7 153.8 37.7 54.4 0 106.2-12.7 154-37.7 38-19.9 73.4-47.5 105.2-82.2 53.9-58.6 79-116.7 80-119.1 2.6-6.2 2-13.3-1.7-18.9-3.6-5.5-9.8-8.9-16.5-8.9z m-607.6 40h574.7c-12 20.9-31.5 51-59.1 80.8-65.1 70.4-142.2 106-228.9 106-86.7 0-163.5-35.7-228.1-106-27.4-29.7-46.7-59.8-58.6-80.8zM511.3 517c-5.2 0-10.4 0.4-15.5 1.1l5.7 39.6c3.2-0.5 6.5-0.7 9.8-0.7 37.4 0 67.7 30.4 67.7 67.7s-30.4 67.7-67.7 67.7-67.7-30.4-67.7-67.7c0-4.6 0.5-9.2 1.4-13.7l-39.2-8c-1.5 7.1-2.2 14.4-2.2 21.7 0 59.4 48.3 107.7 107.7 107.7 59.4 0 107.7-48.3 107.7-107.7S570.8 517 511.3 517zM493.5 557.5h40v-65.6h-40zM769.4 153.9H260.7c-32.9 0-59.6 27.4-59.6 61.1s26.8 61.1 59.6 61.1c11 0 20-9 20-20s-9-20-20-20c-10.8 0-19.6-9.4-19.6-21.1s8.8-21.1 19.6-21.1h508.7c10.8 0 19.6 9.4 19.6 21.1s-8.8 21.1-19.6 21.1c-11 0-20 9-20 20s9 20 20 20c32.9 0 59.6-27.4 59.6-61.1s-26.7-61.1-59.6-61.1zM766.4 68.4H257.8c-32.9 0-59.6 27.4-59.6 61.1 0 17.8 12.9 34.4 36.3 46.7 16.6 8.7 36.7 14.4 51.2 14.4 11 0 20-9 20-20s-9-20-20-20c-5.9 0-17.8-2.6-29.7-8.3-11.6-5.6-16.9-11.1-17.8-13.2 0.2-11.4 8.9-20.6 19.6-20.6h508.7c10.8 0 19.6 9.4 19.6 21.1-0.1 0.9-3 6.3-13.8 12.4-10.6 5.9-21.8 8.6-27.7 8.6-11 0-20 9-20 20s9 20 20 20c28.7 0 81.5-23.2 81.5-61.1 0-33.7-26.8-61.1-59.7-61.1zM238 128.8z"  horiz-adv-x="1024" />

    
    <glyph glyph-name="zaizhu" unicode="&#58912;" d="M515 386.8c-99.6 0-180.6 81-180.6 180.6S415.4 748 515 748s180.6-81 180.6-180.6-81-180.6-180.6-180.6z m0 320c-76.9 0-139.5-62.6-139.5-139.5S438.1 427.9 515 427.9s139.5 62.6 139.5 139.5S591.9 706.8 515 706.8zM791.7 109.6c-0.1 0.7-12.4 71.6-53.6 141.1-53.4 90.3-128.5 136-223.1 136-94.3 0-167.4-45.6-217-135.5-38.3-69.3-47.8-140.2-47.9-140.9l-40.8 5.2c0.4 3.2 10.3 78.3 52.1 154.5C318 373.3 405.7 427.9 515 427.9c60.8 0 115.6-16.7 162.8-49.7 37.3-26.1 69.8-62.3 96.4-107.6 44.7-76 57.6-151 58.1-154.2l-40.6-6.8z"  horiz-adv-x="1024" />

    
    <glyph glyph-name="weixiu" unicode="&#58913;" d="M793.2 112.2c-11 0-21.9 4.3-30.1 11.9L431.9 430.9c-8.1 7.5-8.6 20.2-1.1 28.3 7.5 8.1 20.2 8.6 28.3 1.1l331.2-306.8c1.2-1.1 2.4-1.2 3.1-1.2 1 0 1.4 0.5 1.6 0.7l41.8 47.1c0.1 0.2 0.5 0.6 0.5 1.6 0 0.6-0.3 1.8-1.6 2.9L490.3 495.3c-8.4 7.1-9.5 19.7-2.4 28.2 7.1 8.4 19.7 9.5 28.2 2.4l345.3-290.8c9.1-7.7 14.9-18.9 15.7-30.6 0.8-11.5-2.9-22.6-10.5-31.1l-41.8-47.1c-7.5-8.5-18-13.5-29.5-14-0.7-0.1-1.4-0.1-2.1-0.1zM354.8 413.4c-41 0-82.1 14.4-115 43.7-46.9 41.7-67.7 105.7-54.2 167 1.5 6.9 6.6 12.5 13.4 14.7 6.7 2.2 14.2 0.6 19.5-4.1l85.2-75.7 70.6 79.5-86.5 76.8c-5.2 4.7-7.7 11.7-6.4 18.6s6.1 12.6 12.7 15.1c60.4 22.6 127.8 10 176-32.7 71.5-63.5 78-173.3 14.5-244.8-34.3-38.4-82-58.1-129.8-58.1z m-133 164.9c2.2-34.6 17.9-67.6 44.5-91.3 55-48.8 139.4-43.8 188.3 11.2 48.8 55 43.8 139.4-11.2 188.3-27.9 24.8-64.2 36.4-100.2 33.2l59.5-52.8c7.5-6.6 11.9-15.8 12.5-25.8 0.6-10-2.7-19.6-9.4-27.1l-74-83.4c-13.7-15.4-37.4-16.8-52.8-3.1l-57.2 50.8z m154.3 58.6zM409.229055 512.443598a18.8 21.2 48.389 1 1 24.969023 28.112415 18.8 21.2 48.389 1 1-24.969023-28.112415ZM732.5 555.1h-0.5c-5.9 0.1-11.4 2.5-15.4 6.7l-28.8 30c-8.4 8.8-8.1 22.7 0.6 31.1l93.1 89.4c4.2 4.1 9.8 6.2 15.7 6.1 5.9-0.1 11.4-2.5 15.4-6.7l28.8-30c8.4-8.8 8.1-22.7-0.6-31.1l-93.1-89.4c-4.1-4-9.5-6.1-15.2-6.1z m64.3 143.3c-0.4 0-0.9-0.1-1.4-0.5l-93.1-89.4c-0.8-0.8-0.8-2-0.1-2.8l28.8-30c0.5-0.5 1-0.6 1.4-0.6 0.4 0 0.9 0.1 1.4 0.5L827 665c0.8 0.8 0.8 2 0.1 2.8l-28.8 30c-0.5 0.5-1.1 0.6-1.5 0.6zM423.084 336.603l281.923 270.629 27.7-28.856-281.923-270.629zM305.7 103.9h-0.8c-10.8 0.2-20.8 4.6-28.2 12.4l-51 53.1c-15.4 16-14.9 41.6 1.2 57l142.6 136.9c16 15.4 41.6 14.9 57-1.2l51-53.1c7.4-7.7 11.4-18 11.2-28.7s-4.6-20.8-12.4-28.2l-142.7-137c-7.6-7.2-17.4-11.2-27.9-11.2z m91.5 230.6c-0.1 0-0.2 0-0.2-0.1L254.5 197.6c-0.1-0.1-0.1-0.3 0-0.4l51-53.1s0.1-0.1 0.2-0.1c0.2 0 0.2 0 0.2 0.1L448.5 281s0.1 0.1 0.1 0.2 0 0.2-0.1 0.2l-51 53.1h-0.3z"  horiz-adv-x="1024" />

    
    <glyph glyph-name="tuandui" unicode="&#58914;" d="M417.9 379.3c-96.9 0-175.7 78.8-175.7 175.7S321 730.7 417.9 730.7c96.9 0 175.7-78.8 175.7-175.7s-78.8-175.7-175.7-175.7z m0 311.3c-74.8 0-135.7-60.9-135.7-135.7s60.9-135.7 135.7-135.7c74.8 0 135.7 60.9 135.7 135.7s-60.9 135.7-135.7 135.7zM687 109.7c-0.1 0.7-12.1 69.7-52.1 137.3-52 87.8-125 132.3-217 132.3-92.1 0-163.3-44.7-211.6-132.8-37-67.5-46-135.4-46-136.1l-39.7 5c0.4 3.1 10.1 76.2 50.7 150.2C226.4 366 311.7 419.1 418 419.1c59.2 0 112.4-16.3 158.3-48.3 36.3-25.4 67.9-60.6 93.8-104.7 43.5-73.9 56-146.9 56.5-150l-39.6-6.4zM868.1 111.1c-9.5 99.7-55.8 173-137.6 218-62.3 34.3-123.1 38.7-123.7 38.7l0.8 40c0.3 0 35.9 1.2 70.4 18.7 43.5 22 65.5 59.7 65.5 112 0 45.8-12.9 81.2-38.4 105.1-42.8 40-107.1 36.4-107.7 36.3l-2.6 39.9c3.3 0.2 82.4 4.6 137.7-47.2 33.9-31.8 51-76.9 51-134.2 0-86.2-48.3-128.3-88.8-148.4-0.6-0.3-1.1-0.6-1.7-0.8 17.4-6 36.2-13.9 55.4-24.3 41.5-22.6 75.7-52.2 101.7-88.2 32.4-44.8 51.9-99.3 57.8-161.8l-39.8-3.8z"  horiz-adv-x="1024" />

    
    <glyph glyph-name="jinriyudi" unicode="&#58915;" d="M765.5 44.3h-455c-23.9 0-43.3 19.4-43.3 43.3V203.9h40v-116.4c0-1.8 1.5-3.3 3.3-3.3h455.1c1.8 0 3.3 1.5 3.3 3.3V711.6c0 1.8-1.5 3.3-3.3 3.3H310.5c-1.8 0-3.3-1.5-3.3-3.3v-126.7h-40V711.6c0 23.9 19.4 43.3 43.3 43.3h455.1c23.9 0 43.3-19.4 43.3-43.3v-624.1c-0.1-23.8-19.5-43.2-43.4-43.2zM168.2 412.7h407.9v-40H168.2zM445.5 236c-5.7 0-11.3 2.4-15.3 7.1-7.1 8.4-6.1 21 2.3 28.2l144.2 122.3-142.9 136.3c-8 7.6-8.3 20.3-0.7 28.3 7.6 8 20.3 8.3 28.3 0.7l159-151.7c4.1-3.9 6.4-9.4 6.2-15.1-0.2-5.7-2.7-11-7.1-14.7L458.4 240.8c-3.8-3.2-8.4-4.8-12.9-4.8z"  horiz-adv-x="1024" />

    
    <glyph glyph-name="zangfang" unicode="&#58916;" d="M358.4 563.2h60.8v-89.6h-60.8zM358.4 444.8h60.8v-89.6h-60.8zM528 784C307.2 784 128 604.8 128 384s179.2-400 400-400 400 179.2 400 400S748.8 784 528 784z m-76.8-564.8c0-30.4-14.4-44.8-43.2-44.8-16 0-30.4 0-44.8 1.6-1.6 11.2-3.2 22.4-6.4 32 12.8-1.6 27.2-3.2 40-3.2s19.2 6.4 19.2 20.8v102.4h-60.8c0-73.6-12.8-129.6-38.4-164.8-6.4 8-14.4 17.6-25.6 25.6 20.8 33.6 32 76.8 32 129.6V593.6h126.4v-374.4z m307.2-30.4H520v32h102.4v145.6H544v32h78.4v102.4h35.2v-102.4h83.2v-32h-83.2v-145.6h100.8v-32z m0 331.2H528v-132.8c0-94.4-14.4-171.2-44.8-227.2-9.6 11.2-17.6 20.8-27.2 28.8 24 44.8 36.8 110.4 36.8 196.8V553.6h132.8c-9.6 14.4-20.8 32-35.2 51.2l30.4 19.2c16-19.2 28.8-36.8 40-52.8l-25.6-17.6h124.8v-33.6z"  horiz-adv-x="1024" />

    
    <glyph glyph-name="tingyongfang" unicode="&#58917;" d="M707.7 480.7l-39.8 4.3c0.1 1.1 11.6 116.1-46.1 180.4-25.9 28.8-62.8 43.4-109.7 43.4-46.9 0-83.9-14.6-110-43.5C344 601 354.8 486 354.9 484.8l-39.8-4.1c-0.6 5.4-12.9 133.6 57.1 211.2 34 37.7 81 56.8 139.8 56.8 58.8 0 105.7-19.1 139.5-56.8 69.8-77.5 56.7-205.7 56.2-211.2zM786.4 98.4H239.1c-29.2 0-53 23.8-53 53V443.9c0 29.2 23.8 53 53 53h547.3c29.2 0 53-23.8 53-53v-292.6c0-29.1-23.8-52.9-53-52.9zM239.1 456.9c-7 0-13-5.9-13-13v-292.6c0-7 5.9-13 13-13h547.3c7 0 13 5.9 13 13V443.9c0 7-5.9 13-13 13H239.1zM512.3 272.4c-36.1 0-65.5 29.4-65.5 65.5s29.4 65.5 65.5 65.5 65.5-29.4 65.5-65.5c0.1-36.1-29.4-65.5-65.5-65.5z m0 95.2c-16.4 0-29.7-13.3-29.7-29.7s13.3-29.7 29.7-29.7 29.7 13.3 29.7 29.7-13.3 29.7-29.7 29.7zM492.5 279.1h40v-87.4h-40z"  horiz-adv-x="1024" />

    
    <glyph glyph-name="jinriyuli" unicode="&#58918;" d="M626.7 380.4c-97.3 0-176.5 79.2-176.5 176.5s79.2 176.5 176.5 176.5 176.5-79.2 176.5-176.5S724 380.4 626.7 380.4z m0 312.8c-75.1 0-136.3-61.1-136.3-136.3s61.1-136.3 136.3-136.3c75.1 0 136.3 61.1 136.3 136.3s-61.2 136.3-136.3 136.3zM897 109.6c-0.1 0.7-12.2 70-52.3 137.9-52.2 88.2-125.6 132.9-218 132.9-92.2 0-163.5-44.5-212.1-132.4-37.4-67.8-46.7-137-46.8-137.7l-39.9 5.1c0.4 3.1 10.1 76.5 50.9 150.9 55.3 100.9 141 154.2 247.8 154.2 59.4 0 113-16.3 159-48.6 36.5-25.5 68.2-60.9 94.2-105.2 43.7-74.3 56.2-147.6 56.8-150.7l-39.6-6.4zM131 447.8h286.8v-40H131zM195 347.8c-3.7 0-7.4 1-10.8 3.2l-93.8 60c-5.4 3.5-8.8 9.4-9.2 15.8-0.3 6.4 2.4 12.6 7.5 16.7l90.6 72.6c8.6 6.9 21.2 5.5 28.1-3.1 6.9-8.6 5.5-21.2-3.1-28.1l-68.9-55.2 70.3-45c9.3-6 12-18.3 6.1-27.6-3.7-6.1-10.2-9.3-16.8-9.3z"  horiz-adv-x="1024" />

    
    <glyph glyph-name="gou" unicode="&#58919;" d="M394.6 120.6c-5.6 0-11.2 2.1-15.4 6.4l-241 240.6c-8.5 8.5-8.6 22.4 0 30.9 8.5 8.5 22.4 8.6 30.9 0l225.6-225.2 442.7 442.5c8.5 8.5 22.4 8.5 30.9 0s8.5-22.4 0-30.9L410.1 127c-4.3-4.2-9.9-6.4-15.5-6.4z"  horiz-adv-x="1024" />

    
    <glyph glyph-name="tianjialianxiren" unicode="&#58920;" d="M518.9 361.8c-96.2 0-174.5 78.3-174.5 174.5s78.3 174.5 174.5 174.5 174.5-78.3 174.5-174.5-78.2-174.5-174.5-174.5z m0 309c-74.2 0-134.5-60.3-134.5-134.5s60.3-134.5 134.5-134.5 134.5 60.3 134.5 134.5-60.3 134.5-134.5 134.5zM249 82.6c-0.7 0-1.4 0-2.1 0.1-11 1.2-18.9 11-17.8 21.9 0.2 1.8 4.7 43.9 24.1 95.2 11.4 30.3 25.8 57.7 42.5 81.4 21.3 30.1 46.7 54.2 75.4 71.6 75.6 46 172.7 46.3 288.6 0.9 10.3-4 15.4-15.6 11.3-25.9-4-10.3-15.6-15.3-25.9-11.3-103.6 40.6-188.7 41.4-253.1 2.3-54.6-33.2-85.1-90.1-101.1-132-17.8-46.7-22.1-85.9-22.1-86.3-1-10.3-9.7-17.9-19.8-17.9zM820.4 201H596.9c-11 0-20 9-20 20s9 20 20 20h223.5c11 0 20-9 20-20s-8.9-20-20-20zM708.7 90.8c-11 0-20 9-20 20V334.3c0 11 9 20 20 20s20-9 20-20v-223.5c0-11-9-20-20-20z"  horiz-adv-x="1024" />

    
    <glyph glyph-name="faqichafang" unicode="&#58921;" d="M781.2 34.3H255.1c-11 0-20 9-20 20V388.8h-92.5c-8.4 0-15.9 5.2-18.8 13.1-2.9 7.9-0.6 16.7 5.8 22.1l375.7 319c7.6 6.4 18.7 6.3 26.1-0.2l363.2-319c6.3-5.5 8.5-14.3 5.5-22.1-2.9-7.8-10.4-12.9-18.7-12.9h-80.2v-334.5c0-11.1-8.9-20-20-20z m-506.1 40h486.1V408.8c0 11 9 20 20 20h47.1L518 701.4 197 428.8h58.1c11 0 20-9 20-20v-334.5zM495.8 221.5c-84.2 0-152.7 68.5-152.7 152.7S411.6 527 495.8 527c84.2 0 152.7-68.5 152.7-152.7S580 221.5 495.8 221.5z m0 265.5c-62.2 0-112.7-50.6-112.7-112.7s50.6-112.7 112.7-112.7c62.2 0 112.7 50.6 112.7 112.7S558 487 495.8 487zM706.1 116.2c-5.5 0-11.1 2.3-15 6.8L568.9 261.8c-7.3 8.3-6.5 20.9 1.8 28.2 8.3 7.3 20.9 6.5 28.2-1.8l122.2-138.8c7.3-8.3 6.5-20.9-1.8-28.2-3.8-3.4-8.5-5-13.2-5z"  horiz-adv-x="1024" />

    
    <glyph glyph-name="sousuo" unicode="&#58922;" d="M412.8 241.7c-63.6 0-123.6 24.5-169 69.2-46 45.2-71.6 105.5-72.1 170s24 125.2 69.2 171.2c45.2 46 105.5 71.6 170 72.1 64.4 0.6 125.2-24 171.2-69.2 46-45.2 71.6-105.5 72.1-170 0.6-64.4-24-125.2-69.2-171.2-45.2-46-105.5-71.6-170-72.1h-2.2z m0.1 442.4c-52.1 0-104.2-20.1-143.6-60.1-37.7-38.3-58.2-89.1-57.7-142.8 0.5-53.8 21.8-104.1 60.2-141.8 37.9-37.3 87.9-57.7 141-57.7h1.8c53.8 0.5 104.1 21.8 141.8 60.2 37.7 38.3 58.2 89.1 57.7 142.8s-21.8 104.1-60.2 141.8c-39.1 38.5-90.1 57.6-141 57.6zM565.602 307.886l27.335 27.819 213.062-209.36-27.335-27.818z"  horiz-adv-x="1024" />

    


  </font>
</defs>
</svg>
